<svg xmlns="http://www.w3.org/2000/svg" viewBox="0 0 133.6301 129.85001" width="133.6301" height="129.85001"><title>nuget</title><defs><linearGradient id="a" x2="1" gradientTransform="matrix(0 88.67 88.67 0 728.81 14.22)" gradientUnits="userSpaceOnUse"><stop stop-color="#0050bc" offset="0"/><stop stop-color="#00aeef" offset="1"/></linearGradient><clipPath id="b"><path d="M0 600h800V0H0z"/></clipPath><clipPath id="c"><path d="M684.47 102.9h88.65V42.108h-88.65z"/></clipPath><linearGradient id="d" x2="1" gradientTransform="rotate(112.41 369.28 258.05) scale(222.46)" gradientUnits="userSpaceOnUse"><stop stop-color="#00adee" offset="0"/><stop stop-color="#c7eafb" offset="1"/></linearGradient><linearGradient id="e" x2="1" gradientTransform="matrix(0 18 18 0 678 97.6)" gradientUnits="userSpaceOnUse"><stop stop-color="#0071bc" offset="0"/><stop stop-color="#00aeef" offset="1"/></linearGradient><clipPath id="f"><path d="M0 600h800V0H0z"/></clipPath></defs><path d="M713.23 102.9c-15.88 0-28.758-12.876-28.758-28.761V42.986c0-15.884 12.878-28.76 28.758-28.76h31.159c15.881 0 28.758 12.876 28.758 28.76v31.153c0 15.885-12.877 28.761-28.758 28.761z" fill="url(#a)" transform="matrix(1.25 0 0 -1.25 -835 145.75)"/><g clip-path="url(#b)" transform="matrix(1.25 0 0 -1.25 -835 145.75)"><path d="M773.15 42.982c0-15.885-12.877-28.761-28.758-28.761h-31.158c-15.881 0-28.758 12.876-28.758 28.761v31.152c0 15.885 12.877 28.762 28.758 28.762h31.158c15.881 0 28.758-12.877 28.758-28.762z" fill="none" stroke="#aedee4" stroke-width="3"/><path d="M718.19 77.264c0-5.994-4.858-10.852-10.853-10.852-5.994 0-10.853 4.858-10.853 10.852 0 5.994 4.859 10.852 10.853 10.852 5.995 0 10.853-4.858 10.853-10.852m43.41-34.176c0-10.33-8.375-18.705-18.705-18.705-10.329 0-18.703 8.375-18.703 18.705 0 10.328 8.374 18.702 18.703 18.702 10.33 0 18.705-8.374 18.705-18.702" fill="#fff"/><g clip-path="url(#c)" opacity=".25"><path d="M721.79 45.117c20.621 5.028 38.234 15.777 51.332 29.949-.493 15.453-13.166 27.83-28.734 27.83h-31.159c-15.88 0-28.757-12.876-28.757-28.761V42.982c0-.044.002-.086.003-.129 12.057-1.464 24.678-.817 37.315 2.264" fill="url(#d)"/></g></g><path d="M669 106.6c0-4.972 4.028-9.002 9-9.002 4.971 0 9 4.03 9 9.002 0 4.97-4.029 9.001-9 9.001-4.972 0-9-4.031-9-9.001" fill="url(#e)" transform="matrix(1.25 0 0 -1.25 -835 145.75)"/><g clip-path="url(#f)" transform="matrix(1.25 0 0 -1.25 -835 145.75)"><path d="M687 106.6c0-4.972-4.029-9.002-9-9.002-4.972 0-9 4.03-9 9.002 0 4.971 4.028 9.001 9 9.001 4.971 0 9-4.03 9-9.001z" fill="none" stroke="#aedee4" stroke-width="2"/></g></svg>